<svg width="1200" height="400" viewBox="0 0 1200 400" fill="none" xmlns="http://www.w3.org/2000/svg">
<g clip-path="url(#clip0_1157_220)">
<rect width="1200" height="400" fill="#746C84"/>
<path d="M539.368 183.84V189.664H527.552V225H521.168V189.664H509.352V183.84H539.368ZM547.813 225L559.405 183.84H567.693L579.285 225H572.621L569.989 214.528H557.165L554.365 225H547.813ZM568.421 208.984L563.493 190.336L558.677 208.984H568.421ZM599.732 183.84V201.144H603.484L614.46 183.84H621.684L609.028 203.552L623.308 225H615.692L603.82 206.968H599.732V225H593.46V183.84H599.732ZM662.514 219.456V225H637.034V219.456H646.666V189.384H637.314V183.84H662.29V189.384H652.882V219.456H662.514ZM679.054 225V183.84H685.158L699.494 212.68V183.84H705.71V225H699.606L685.326 196.216V225H679.054ZM735.706 202.152H751.106V217.384C750.546 218.541 749.8 219.624 748.866 220.632C747.97 221.64 746.944 222.517 745.786 223.264C744.629 223.973 743.341 224.533 741.922 224.944C740.541 225.355 739.085 225.56 737.554 225.56C735.09 225.56 732.869 225.093 730.89 224.16C728.912 223.189 727.213 221.808 725.794 220.016C724.376 218.224 723.274 216.021 722.49 213.408C721.744 210.795 721.37 207.808 721.37 204.448C721.37 201.2 721.762 198.269 722.546 195.656C723.33 193.043 724.413 190.821 725.794 188.992C727.213 187.163 728.893 185.763 730.834 184.792C732.813 183.784 734.997 183.28 737.386 183.28C740.522 183.28 743.229 184.083 745.506 185.688C747.784 187.293 749.52 189.496 750.714 192.296L745.114 194.76C743.509 191.101 740.933 189.272 737.386 189.272C735.93 189.272 734.605 189.627 733.41 190.336C732.216 191.008 731.189 191.997 730.33 193.304C729.509 194.611 728.856 196.216 728.37 198.12C727.922 199.987 727.698 202.096 727.698 204.448C727.698 209.189 728.538 212.923 730.218 215.648C731.936 218.336 734.381 219.68 737.554 219.68C739.346 219.68 740.914 219.269 742.258 218.448C743.602 217.589 744.61 216.563 745.282 215.368V207.864H735.706V202.152ZM801.486 225L813.078 183.84H821.366L832.958 225H826.294L823.662 214.528H810.838L808.038 225H801.486ZM822.094 208.984L817.166 190.336L812.35 208.984H822.094ZM905.179 194.536C904.693 193.043 903.797 191.736 902.491 190.616C901.184 189.496 899.523 188.936 897.507 188.936C896.275 188.936 895.248 189.123 894.427 189.496C893.643 189.832 893.008 190.28 892.523 190.84C892.037 191.363 891.683 191.941 891.459 192.576C891.272 193.211 891.179 193.808 891.179 194.368C891.179 195.563 891.533 196.608 892.243 197.504C892.989 198.4 894.259 199.128 896.051 199.688L902.099 201.648C905.235 202.619 907.624 204.131 909.267 206.184C910.947 208.237 911.787 210.683 911.787 213.52C911.787 215.013 911.488 216.488 910.891 217.944C910.293 219.363 909.416 220.651 908.259 221.808C907.101 222.928 905.683 223.843 904.003 224.552C902.323 225.224 900.381 225.56 898.179 225.56C896.387 225.56 894.707 225.299 893.139 224.776C891.571 224.216 890.152 223.451 888.883 222.48C887.651 221.509 886.605 220.371 885.747 219.064C884.888 217.757 884.291 216.32 883.955 214.752L890.003 213.184C890.376 215.088 891.309 216.675 892.803 217.944C894.333 219.176 896.125 219.792 898.179 219.792C899.448 219.792 900.531 219.605 901.427 219.232C902.36 218.821 903.125 218.317 903.723 217.72C904.32 217.123 904.749 216.451 905.011 215.704C905.309 214.957 905.459 214.229 905.459 213.52C905.459 212.101 905.048 210.832 904.227 209.712C903.405 208.555 901.912 207.659 899.747 207.024L894.259 205.288C891.197 204.355 888.845 202.992 887.203 201.2C885.597 199.371 884.795 197.075 884.795 194.312C884.795 192.893 885.075 191.531 885.635 190.224C886.195 188.917 887.016 187.741 888.099 186.696C889.181 185.651 890.507 184.829 892.075 184.232C893.643 183.597 895.453 183.28 897.507 183.28C899.261 183.28 900.885 183.541 902.379 184.064C903.909 184.549 905.272 185.24 906.467 186.136C907.661 186.995 908.651 188.003 909.435 189.16C910.256 190.317 910.816 191.568 911.115 192.912L905.179 194.536ZM954.446 183.84V189.664H942.63V225H936.246V189.664H924.43V183.84H954.446ZM962.891 225L974.483 183.84H982.771L994.363 225H987.699L985.067 214.528H972.243L969.443 225H962.891ZM983.499 208.984L978.571 190.336L973.755 208.984H983.499ZM1008.43 225V183.84H1014.53L1028.87 212.68V183.84H1035.08V225H1028.98L1014.7 196.216V225H1008.43ZM1073.28 197C1073.02 195.917 1072.66 194.909 1072.22 193.976C1071.81 193.043 1071.26 192.24 1070.59 191.568C1069.96 190.859 1069.21 190.299 1068.35 189.888C1067.53 189.477 1066.58 189.272 1065.5 189.272C1062.55 189.272 1060.33 190.597 1058.83 193.248C1057.38 195.861 1056.65 199.595 1056.65 204.448C1056.65 209.301 1057.41 213.035 1058.94 215.648C1060.47 218.261 1062.68 219.568 1065.55 219.568C1067.68 219.568 1069.42 218.952 1070.76 217.72C1072.14 216.451 1073.17 214.752 1073.84 212.624L1079.66 214.64C1079.18 215.984 1078.53 217.309 1077.7 218.616C1076.88 219.923 1075.89 221.099 1074.74 222.144C1073.62 223.152 1072.29 223.973 1070.76 224.608C1069.23 225.243 1067.49 225.56 1065.55 225.56C1063.13 225.56 1060.96 225.056 1059.06 224.048C1057.15 223.04 1055.55 221.621 1054.24 219.792C1052.93 217.925 1051.94 215.704 1051.27 213.128C1050.6 210.515 1050.26 207.621 1050.26 204.448C1050.26 201.237 1050.6 198.325 1051.27 195.712C1051.94 193.099 1052.93 190.877 1054.24 189.048C1055.55 187.181 1057.13 185.763 1059 184.792C1060.9 183.784 1063.09 183.28 1065.55 183.28C1068.95 183.28 1071.84 184.363 1074.23 186.528C1076.66 188.693 1078.34 191.68 1079.27 195.488L1073.28 197ZM1121 183.84V189.496H1101.9V200.92H1118.31V206.52H1101.9V219.344H1121.67V225H1095.63V183.84H1121ZM1142.57 221.584C1142.57 220.427 1142.96 219.456 1143.74 218.672C1144.56 217.851 1145.53 217.44 1146.65 217.44C1147.81 217.44 1148.78 217.851 1149.57 218.672C1150.39 219.456 1150.8 220.427 1150.8 221.584C1150.8 222.704 1150.39 223.675 1149.57 224.496C1148.78 225.28 1147.81 225.672 1146.65 225.672C1145.53 225.672 1144.56 225.28 1143.74 224.496C1142.96 223.675 1142.57 222.704 1142.57 221.584Z" fill="#EDEDED"/>
<g filter="url(#filter0_f_1157_220)">
<circle cx="220" cy="200" r="244" fill="url(#paint0_radial_1157_220)" fill-opacity="0.4"/>
</g>
<g filter="url(#filter1_f_1157_220)">
<circle cx="220.261" cy="200.261" r="162.261" fill="url(#paint1_radial_1157_220)" fill-opacity="0.2"/>
</g>
<path d="M108.144 182.84H118.616C121.565 182.84 124.16 183.381 126.4 184.464C128.677 185.547 130.563 187.021 132.056 188.888C133.587 190.755 134.744 192.939 135.528 195.44C136.312 197.941 136.704 200.611 136.704 203.448C136.704 206.285 136.331 208.955 135.584 211.456C134.837 213.957 133.699 216.141 132.168 218.008C130.675 219.837 128.808 221.293 126.568 222.376C124.328 223.459 121.715 224 118.728 224H108.144V182.84ZM130.208 203.448C130.208 201.395 129.965 199.472 129.48 197.68C128.995 195.888 128.267 194.32 127.296 192.976C126.325 191.632 125.112 190.587 123.656 189.84C122.237 189.056 120.576 188.664 118.672 188.664H114.416V218.176H118.784C120.688 218.176 122.349 217.803 123.768 217.056C125.224 216.272 126.419 215.227 127.352 213.92C128.323 212.613 129.032 211.064 129.48 209.272C129.965 207.443 130.208 205.501 130.208 203.448ZM154.713 182.84L163.505 216.664L172.073 182.84H178.737L167.537 224H159.193L148.049 182.84H154.713ZM213.826 196C213.564 194.917 213.21 193.909 212.762 192.976C212.351 192.043 211.81 191.24 211.138 190.568C210.503 189.859 209.756 189.299 208.898 188.888C208.076 188.477 207.124 188.272 206.042 188.272C203.092 188.272 200.871 189.597 199.378 192.248C197.922 194.861 197.194 198.595 197.194 203.448C197.194 208.301 197.959 212.035 199.49 214.648C201.02 217.261 203.223 218.568 206.098 218.568C208.226 218.568 209.962 217.952 211.306 216.72C212.687 215.451 213.714 213.752 214.386 211.624L220.21 213.64C219.724 214.984 219.071 216.309 218.25 217.616C217.428 218.923 216.439 220.099 215.282 221.144C214.162 222.152 212.836 222.973 211.306 223.608C209.775 224.243 208.039 224.56 206.098 224.56C203.671 224.56 201.506 224.056 199.602 223.048C197.698 222.04 196.092 220.621 194.786 218.792C193.479 216.925 192.49 214.704 191.818 212.128C191.146 209.515 190.81 206.621 190.81 203.448C190.81 200.237 191.146 197.325 191.818 194.712C192.49 192.099 193.479 189.877 194.786 188.048C196.092 186.181 197.679 184.763 199.546 183.792C201.45 182.784 203.634 182.28 206.098 182.28C209.495 182.28 212.388 183.363 214.778 185.528C217.204 187.693 218.884 190.68 219.818 194.488L213.826 196ZM261.865 182.84V188.664H250.049V224H243.665V188.664H231.849V182.84H261.865ZM280.757 182.84L289.549 216.664L298.117 182.84H304.781L293.581 224H285.237L274.093 182.84H280.757ZM338.587 193.536C338.101 192.043 337.205 190.736 335.899 189.616C334.592 188.496 332.931 187.936 330.915 187.936C329.683 187.936 328.656 188.123 327.835 188.496C327.051 188.832 326.416 189.28 325.931 189.84C325.445 190.363 325.091 190.941 324.867 191.576C324.68 192.211 324.587 192.808 324.587 193.368C324.587 194.563 324.941 195.608 325.651 196.504C326.397 197.4 327.667 198.128 329.459 198.688L335.507 200.648C338.643 201.619 341.032 203.131 342.675 205.184C344.355 207.237 345.195 209.683 345.195 212.52C345.195 214.013 344.896 215.488 344.299 216.944C343.701 218.363 342.824 219.651 341.667 220.808C340.509 221.928 339.091 222.843 337.411 223.552C335.731 224.224 333.789 224.56 331.587 224.56C329.795 224.56 328.115 224.299 326.547 223.776C324.979 223.216 323.56 222.451 322.291 221.48C321.059 220.509 320.013 219.371 319.155 218.064C318.296 216.757 317.699 215.32 317.363 213.752L323.411 212.184C323.784 214.088 324.717 215.675 326.211 216.944C327.741 218.176 329.533 218.792 331.587 218.792C332.856 218.792 333.939 218.605 334.835 218.232C335.768 217.821 336.533 217.317 337.131 216.72C337.728 216.123 338.157 215.451 338.419 214.704C338.717 213.957 338.867 213.229 338.867 212.52C338.867 211.101 338.456 209.832 337.635 208.712C336.813 207.555 335.32 206.659 333.155 206.024L327.667 204.288C324.605 203.355 322.253 201.992 320.611 200.2C319.005 198.371 318.203 196.075 318.203 193.312C318.203 191.893 318.483 190.531 319.043 189.224C319.603 187.917 320.424 186.741 321.507 185.696C322.589 184.651 323.915 183.829 325.483 183.232C327.051 182.597 328.861 182.28 330.915 182.28C332.669 182.28 334.293 182.541 335.787 183.064C337.317 183.549 338.68 184.24 339.875 185.136C341.069 185.995 342.059 187.003 342.843 188.16C343.664 189.317 344.224 190.568 344.523 191.912L338.587 193.536Z" fill="#EDEDED"/>
</g>
<defs>
<filter id="filter0_f_1157_220" x="-43.8068" y="-63.8068" width="527.614" height="527.614" filterUnits="userSpaceOnUse" color-interpolation-filters="sRGB">
<feFlood flood-opacity="0" result="BackgroundImageFix"/>
<feBlend mode="normal" in="SourceGraphic" in2="BackgroundImageFix" result="shape"/>
<feGaussianBlur stdDeviation="9.9034" result="effect1_foregroundBlur_1157_220"/>
</filter>
<filter id="filter1_f_1157_220" x="50.4249" y="30.4249" width="339.672" height="339.672" filterUnits="userSpaceOnUse" color-interpolation-filters="sRGB">
<feFlood flood-opacity="0" result="BackgroundImageFix"/>
<feBlend mode="normal" in="SourceGraphic" in2="BackgroundImageFix" result="shape"/>
<feGaussianBlur stdDeviation="3.78757" result="effect1_foregroundBlur_1157_220"/>
</filter>
<radialGradient id="paint0_radial_1157_220" cx="0" cy="0" r="1" gradientUnits="userSpaceOnUse" gradientTransform="translate(220.438 200.438) rotate(95.8067) scale(155.873)">
<stop stop-color="#A5A3F1"/>
<stop offset="1" stop-color="#A5A3F1" stop-opacity="0"/>
</radialGradient>
<radialGradient id="paint1_radial_1157_220" cx="0" cy="0" r="1" gradientUnits="userSpaceOnUse" gradientTransform="translate(220.552 200.552) rotate(89.9386) scale(161.97)">
<stop offset="0.552083" stop-color="#EFC5C2"/>
<stop offset="1" stop-color="#FFD9D7" stop-opacity="0.05"/>
</radialGradient>
<clipPath id="clip0_1157_220">
<rect width="1200" height="400" fill="white"/>
</clipPath>
</defs>
</svg>
